<svg width="39" height="39" viewBox="0 0 39 39" fill="none" xmlns="http://www.w3.org/2000/svg">
<path d="M38.0875 9.525H36.1875V17.15H38.0875V9.525Z" fill="white"/>
<path d="M36.1874 7.625H34.2749V9.525H36.1874V7.625Z" fill="white"/>
<path d="M34.275 34.2875H32.375V36.2H34.275V34.2875Z" fill="white"/>
<path d="M32.375 19.05H34.275V34.2875H36.1875V17.15H32.375V19.05Z" fill="white"/>
<path d="M32.375 19.05H28.5625V20.9625H32.375V19.05Z" fill="white"/>
<path d="M32.3749 36.2H5.7124V38.1H32.3749V36.2Z" fill="white"/>
<path d="M28.5627 20.9625H24.7627V22.8625H28.5627V20.9625Z" fill="white"/>
<path d="M17.1377 24.7625V28.575H20.9502V24.7625H24.7627V22.8625H20.9502V20.9625H17.1377V22.8625H13.3252V24.7625H17.1377Z" fill="white"/>
<path d="M28.5627 0H9.5127V1.9125H28.5627V0Z" fill="white"/>
<path d="M13.3252 20.9625H9.5127V22.8625H13.3252V20.9625Z" fill="white"/>
<path d="M9.5124 19.05H5.7124V20.9625H9.5124V19.05Z" fill="white"/>
<path d="M34.2748 7.625V5.725H30.4748V1.9125H28.5623V5.725H9.5123V1.9125H7.6123V5.725H3.7998V7.625H34.2748Z" fill="white"/>
<path d="M5.7123 34.2875H3.7998V36.2H5.7123V34.2875Z" fill="white"/>
<path d="M3.7999 19.05H5.7124V17.15H1.8999V34.2875H3.7999V19.05Z" fill="white"/>
<path d="M3.7999 7.625H1.8999V9.525H3.7999V7.625Z" fill="white"/>
<path d="M1.9 9.525H0V17.15H1.9V9.525Z" fill="white"/>
</svg>
